<svg width="29.000000" height="29.000000" viewBox="0 0 29 29" fill="none" xmlns="http://www.w3.org/2000/svg" xmlns:xlink="http://www.w3.org/1999/xlink">
	<desc>
			Created with Pixso.
	</desc>
	<defs/>
	<path id="Forma 1" d="M14.5 19.937C19 19.937 22.6562 15.4639 22.6562 9.96777C22.6562 4.47217 19 0 14.5 0C13.3633 0.0219727 12.2461 0.303223 11.2354 0.823242C10.2241 1.34326 9.34521 2.08789 8.66602 3C7.12646 4.99561 6.30811 7.45361 6.34375 9.97412C6.34375 15.4648 10 19.937 14.5 19.937ZM14.5 1.81299C18 1.81299 20.8438 5.47217 20.8438 9.96924C20.8438 14.4658 17.998 18.125 14.5 18.125C11.002 18.125 8.15625 14.4648 8.15527 9.96924C8.15381 5.47314 11 1.81299 14.5 1.81299ZM20.8438 18.125C20.6035 18.125 20.373 18.2207 20.2031 18.3906C20.0332 18.5605 19.9375 18.791 19.9375 19.0317C19.9375 19.272 20.0332 19.5024 20.2031 19.6724C20.373 19.8423 20.6035 19.938 20.8438 19.938C22.5259 19.9399 24.1387 20.6089 25.3281 21.7981C26.5171 22.9875 27.186 24.6001 27.188 26.282C27.1875 26.5222 27.0918 26.7522 26.9219 26.9221C26.7524 27.0918 26.522 27.1875 26.2822 27.188L2.71973 27.188C2.47998 27.1875 2.24951 27.0918 2.08008 26.9221C1.91016 26.7522 1.81445 26.5222 1.81396 26.282C1.81592 24.6001 2.48535 22.9878 3.67432 21.7983C4.86377 20.6091 6.47607 19.9399 8.1582 19.938C8.39844 19.938 8.62891 19.8428 8.79883 19.6729C8.96826 19.5029 9.06396 19.2725 9.06396 19.0322C9.06396 18.7915 8.96826 18.561 8.79883 18.3916C8.62891 18.2217 8.39844 18.126 8.1582 18.126C5.99561 18.1279 3.92188 18.9873 2.39258 20.5164C0.863281 22.0452 0.00244141 24.1184 0 26.281C0.000976562 27.002 0.287598 27.6931 0.797363 28.2026C1.30713 28.7124 1.99805 28.9993 2.71875 29L26.2822 29C27.0029 28.999 27.6934 28.7122 28.2031 28.2024C28.7129 27.6926 28.999 27.0017 29 26.281C28.9976 24.1187 28.1372 22.0457 26.6084 20.5168C25.0791 18.9878 23.0063 18.1274 20.8438 18.125Z" fill="#E8E8E8" fill-opacity="1.000000" fill-rule="nonzero"/>
</svg>
