<svg width="31.995605" height="29.000000" viewBox="0 0 31.9956 29" fill="none" xmlns="http://www.w3.org/2000/svg" xmlns:xlink="http://www.w3.org/1999/xlink">
	<desc>
			Created with Pixso.
	</desc>
	<defs/>
	<path id="Forma 1" d="M26.2012 29C25.5532 28.9739 24.9414 28.6948 24.4971 28.2227C24.0527 27.7505 23.8115 27.123 23.8242 26.4751C23.8374 25.8269 24.1045 25.2097 24.5674 24.7559C25.0303 24.3022 25.6528 24.0481 26.3008 24.0481C26.9492 24.0481 27.5718 24.3022 28.0347 24.7559C28.4976 25.2097 28.7642 25.8269 28.7773 26.4751C28.7905 27.123 28.5488 27.7505 28.1045 28.2227C27.6606 28.6948 27.0488 28.9739 26.4009 29L26.2012 29ZM6.75293 26.3201C6.75293 25.79 6.91016 25.2717 7.20459 24.8311C7.49902 24.3904 7.91748 24.0469 8.40723 23.844C8.89697 23.6411 9.43604 23.5881 9.95605 23.6914C10.4756 23.7949 10.9531 24.05 11.3281 24.425C11.7026 24.7998 11.958 25.2773 12.0615 25.7971C12.165 26.3171 12.1118 26.856 11.9092 27.3457C11.7061 27.8352 11.3628 28.2539 10.9219 28.5483C10.481 28.8428 9.96289 29 9.43311 29C9.08105 29.0002 8.73193 28.9312 8.40674 28.7966C8.08154 28.6621 7.78564 28.4646 7.53662 28.2158C7.2876 27.9668 7.08984 27.6714 6.95508 27.3459C6.82031 27.0208 6.75098 26.6721 6.75098 26.3201L6.75293 26.3201ZM10.5527 20.686C10.2935 20.6868 10.041 20.6023 9.83398 20.4458C9.62744 20.2891 9.47754 20.0688 9.4082 19.8188L4.5752 2.36377L1.18213 2.36377C0.868652 2.36377 0.567871 2.23926 0.346191 2.01758C0.124512 1.7959 0 1.49561 0 1.18213C0 0.868652 0.124512 0.567871 0.346191 0.346191C0.567871 0.124512 0.868652 0 1.18213 0L5.46289 0C5.72266 -0.000976562 5.9751 0.0834961 6.18164 0.240723C6.38867 0.397461 6.5376 0.617676 6.60693 0.868164L11.4399 18.3232L24.6182 18.3232L29.001 8.2749L14.4009 8.2749C14.2427 8.27979 14.0854 8.25244 13.938 8.19482C13.7905 8.1377 13.6558 8.05127 13.5425 7.94092C13.4287 7.83105 13.3384 7.69873 13.2769 7.55322C13.2153 7.40723 13.1836 7.25098 13.1836 7.09229C13.1836 6.93408 13.2153 6.77783 13.2769 6.63184C13.3384 6.48633 13.4287 6.354 13.5425 6.24414C13.6558 6.13379 13.7905 6.04736 13.938 5.98975C14.0854 5.93262 14.2427 5.90527 14.4009 5.91016L30.814 5.91016C31.0098 5.91016 31.2021 5.9585 31.3745 6.05176C31.5464 6.14502 31.6929 6.2793 31.7998 6.44287C31.9077 6.60742 31.9736 6.7959 31.9907 6.99121C32.0083 7.18701 31.9771 7.38428 31.8999 7.56494L26.4951 19.9771C26.4028 20.1877 26.251 20.3669 26.0586 20.4927C25.8662 20.6187 25.6411 20.6858 25.4111 20.686L10.5527 20.686Z" fill="#E8E8E8" fill-opacity="1.000000" fill-rule="nonzero"/>
</svg>
